<svg viewBox="0 0 112 112" xmlns="http://www.w3.org/2000/svg" xmlns:xlink="http://www.w3.org/1999/xlink" width="112.000000" height="112.000366" fill="none" customFrame="#000000">
	<rect id="доставка" width="111.000000" height="111.000351" x="0.500000" y="0.500000" stroke="rgb(0,0,0)" stroke-opacity="0" stroke-width="1.000000" />
	<path id="Union" d="M68.4167 77.4367L46.984 77.4367C46.5992 82.7826 42.1317 87.0004 36.6772 87.0004C31.2228 87.0004 26.7553 82.7826 26.3705 77.4367L17.4865 77.4367Q17.1786 77.4367 16.9159 77.3279Q16.6531 77.219 16.4354 77.0013Q16.2177 76.7836 16.1089 76.5209Q16 76.2581 16 75.9502L16 32.4865Q16 32.1786 16.1088 31.9158Q16.2177 31.6531 16.4354 31.4354Q16.6531 31.2177 16.9158 31.1088Q17.1786 31 17.4865 31L68.4167 31Q68.7245 31 68.9873 31.1089Q69.2501 31.2177 69.4678 31.4354Q69.6855 31.6531 69.7943 31.9159Q69.9031 32.1786 69.9031 32.4865L69.9031 39.84L82.4412 39.84Q82.6811 39.84 82.8983 39.9101Q83.1155 39.9802 83.31 40.1203Q83.5046 40.2605 83.6399 40.4443Q83.7752 40.6281 83.8512 40.8556L88.6788 55.3102L93.513 55.3102Q93.8209 55.3102 94.0836 55.419Q94.3464 55.5278 94.5641 55.7455Q94.7818 55.9632 94.8906 56.226Q94.9995 56.4888 94.9995 56.7966L94.9995 76.6868Q94.9995 76.9947 94.8906 77.2575Q94.7818 77.5202 94.5641 77.7379Q94.3464 77.9556 94.0836 78.0645Q93.8209 78.1733 93.513 78.1733L91.1921 78.1733C90.4702 83.165 86.1664 87.0004 80.965 87.0004C75.5105 87.0004 71.043 82.7826 70.6582 77.4366L68.4317 77.4366Q68.4242 77.4367 68.4167 77.4367ZM69.9031 55.3102L85.5444 55.3102L81.3705 42.813L69.9031 42.813L69.9031 55.3102ZM54.4023 33.973L66.9302 33.973L66.9302 74.4637L46.7702 74.4637C45.7516 69.8364 41.6196 66.3735 36.6772 66.3735C31.7349 66.3735 27.6029 69.8364 26.5843 74.4637L18.973 74.4637L18.973 33.973L32.2382 33.973L32.2382 47.22Q32.2382 47.5278 32.3471 47.7906Q32.4559 48.0534 32.6736 48.2711Q32.8913 48.4888 33.1541 48.5976Q33.4169 48.7064 33.7247 48.7064Q33.8167 48.7064 33.9074 48.6952L33.9075 48.6952L33.9078 48.6952Q33.9984 48.6839 34.0875 48.6615Q34.1768 48.639 34.262 48.606L34.2621 48.606Q34.3473 48.5729 34.4284 48.5293L43.3203 43.7508L52.2121 48.5293Q52.4833 48.6751 52.7663 48.7036Q53.0493 48.7321 53.3441 48.6434Q53.6389 48.5547 53.8592 48.3748Q54.0795 48.1948 54.2252 47.9236Q54.2688 47.8425 54.3018 47.7573L54.3018 47.7572Q54.3349 47.672 54.3573 47.5828Q54.3798 47.4936 54.391 47.4031L54.391 47.4028Q54.4023 47.3121 54.4023 47.22L54.4023 33.973ZM51.4293 33.973L35.2112 33.973L35.2112 44.7336L42.6166 40.7539Q42.7814 40.6653 42.9573 40.621Q43.1332 40.5768 43.3203 40.5768Q43.5073 40.5768 43.6832 40.621Q43.8592 40.6653 44.0239 40.7539L51.4293 44.7336L51.4293 33.973ZM58.8214 56.0468L48.4877 56.0468C47.6553 56.0468 47.0012 56.7008 47.0012 57.5332C47.0012 58.3657 47.6553 59.0197 48.4877 59.0197L58.8214 59.0197C59.6538 59.0197 60.3078 58.3657 60.3078 57.5332C60.3078 56.7008 59.6538 56.0468 58.8214 56.0468ZM69.9035 74.4637L70.872 74.4637C71.8907 69.8363 76.0226 66.3735 80.965 66.3735C86.1663 66.3735 90.4701 70.2088 91.1921 75.2003L92.0265 75.2003L92.0265 58.2831L69.9035 58.2831L69.9035 74.4637ZM58.8206 64.887L51.4402 64.887C50.6077 64.887 49.9537 65.5411 49.9537 66.3735C49.9537 67.2059 50.6077 67.86 51.4402 67.86L58.8206 67.86C59.653 67.86 60.3071 67.2059 60.3071 66.3735C60.3071 65.5411 59.653 64.887 58.8206 64.887ZM36.6772 69.3465Q35.1451 69.3465 33.8384 69.8894L33.838 69.8896L33.8379 69.8896Q32.5434 70.4276 31.4704 71.4985Q30.3885 72.5783 29.85 73.8825L29.85 73.8826Q29.3166 75.1747 29.3166 76.6869Q29.3166 78.1992 29.85 79.4913L29.8501 79.4916Q30.3886 80.7956 31.4704 81.8754Q32.5435 82.9463 33.838 83.4843Q35.1448 84.0274 36.6772 84.0274Q38.2097 84.0274 39.5165 83.4843L39.5166 83.4843Q40.8111 82.9463 41.8841 81.8754Q42.9659 80.7957 43.5044 79.4916L43.5045 79.4913L43.5048 79.4907Q44.0379 78.1988 44.0379 76.6869Q44.0379 75.1748 43.5046 73.8828L43.5045 73.8826Q42.9661 72.5784 41.8841 71.4985Q40.8111 70.4276 39.5165 69.8896Q38.2097 69.3465 36.6772 69.3465ZM80.965 69.3465Q79.4328 69.3465 78.1261 69.8894L78.1257 69.8896Q76.8312 70.4276 75.7581 71.4985Q74.6761 72.5784 74.1377 73.8826Q73.6043 75.1747 73.6043 76.6869Q73.6043 78.1992 74.1377 79.4913L74.1378 79.4914Q74.6762 80.7955 75.7581 81.8754Q76.8311 82.9462 78.1255 83.4842L78.1257 83.4843Q79.4325 84.0274 80.965 84.0274Q82.4971 84.0274 83.8038 83.4845L83.8042 83.4843L83.8051 83.4839Q85.0992 82.9459 86.1718 81.8754Q87.2537 80.7956 87.7922 79.4915L87.7922 79.4913L87.7927 79.4903Q88.3257 78.1986 88.3257 76.6869Q88.3257 75.1748 87.7923 73.8828L87.7923 73.8826Q87.2538 72.5784 86.1718 71.4985Q85.0988 70.4276 83.8042 69.8896Q82.4975 69.3465 80.965 69.3465Z" fill="rgb(197,53,140)" fill-rule="evenodd" />
</svg>
