<?xml version="1.0" encoding="utf-8"?>
<svg width="36" height="36" viewBox="0 0 36 36" fill="none" xmlns="http://www.w3.org/2000/svg">
  <path d="M18 -1Q18.0985 -1 18.1951 -0.980785Q18.2917 -0.96157 18.3827 -0.923879Q18.4737 -0.886188 18.5556 -0.83147Q18.6375 -0.776751 18.7071 -0.707107Q18.7767 -0.637463 18.8315 -0.55557Q18.8862 -0.473678 18.9239 -0.382683Q18.9616 -0.291689 18.9808 -0.19509Q19 -0.0984914 19 0L19 17L36 17Q36.0985 17 36.1951 17.0192Q36.2917 17.0384 36.3827 17.0761Q36.4737 17.1138 36.5556 17.1685Q36.6375 17.2232 36.7071 17.2929Q36.7767 17.3625 36.8315 17.4444Q36.8862 17.5263 36.9239 17.6173Q36.9616 17.7083 36.9808 17.8049Q37 17.9015 37 18Q37 18.0985 36.9808 18.1951Q36.9616 18.2917 36.9239 18.3827Q36.8862 18.4737 36.8315 18.5556Q36.7767 18.6375 36.7071 18.7071Q36.6375 18.7767 36.5556 18.8315Q36.4737 18.8862 36.3827 18.9239Q36.2917 18.9616 36.1951 18.9808Q36.0985 19 36 19L19 19L19 36Q19 36.0985 18.9808 36.1951Q18.9616 36.2917 18.9239 36.3827Q18.8862 36.4737 18.8315 36.5556Q18.7767 36.6375 18.7071 36.7071Q18.6375 36.7767 18.5556 36.8315Q18.4737 36.8862 18.3827 36.9239Q18.2917 36.9616 18.1951 36.9808Q18.0985 37 18 37Q17.9015 37 17.8049 36.9808Q17.7083 36.9616 17.6173 36.9239Q17.5263 36.8862 17.4444 36.8315Q17.3625 36.7767 17.2929 36.7071Q17.2232 36.6375 17.1685 36.5556Q17.1138 36.4737 17.0761 36.3827Q17.0384 36.2917 17.0192 36.1951Q17 36.0985 17 36L17 19L0 19Q-0.0984914 19 -0.19509 18.9808Q-0.291689 18.9616 -0.382683 18.9239Q-0.473678 18.8862 -0.55557 18.8315Q-0.637463 18.7767 -0.707107 18.7071Q-0.776751 18.6375 -0.831469 18.5556Q-0.886188 18.4737 -0.923879 18.3827Q-0.96157 18.2917 -0.980785 18.1951Q-1 18.0985 -1 18Q-1 17.9015 -0.980785 17.8049Q-0.96157 17.7083 -0.923879 17.6173Q-0.886188 17.5263 -0.83147 17.4444Q-0.776751 17.3625 -0.707107 17.2929Q-0.637463 17.2232 -0.55557 17.1685Q-0.473678 17.1138 -0.382683 17.0761Q-0.291689 17.0384 -0.19509 17.0192Q-0.0984914 17 0 17L17 17L17 0Q17 -0.0984914 17.0192 -0.19509Q17.0384 -0.291689 17.0761 -0.382683Q17.1138 -0.473678 17.1685 -0.55557Q17.2232 -0.637463 17.2929 -0.707107Q17.3625 -0.776751 17.4444 -0.831469Q17.5263 -0.886188 17.6173 -0.923879Q17.7083 -0.961571 17.8049 -0.980785Q17.9015 -1 18 -1Z" fill="#111111" fill-rule="evenodd" />
</svg>