<svg viewBox="0 0 112 112" xmlns="http://www.w3.org/2000/svg" xmlns:xlink="http://www.w3.org/1999/xlink" width="112.000000" height="112.000000" fill="none" customFrame="#000000">
	<rect id="ассортимент" width="111.000000" height="110.999985" x="0.500000" y="0.500000" stroke="rgb(0,0,0)" stroke-opacity="0" stroke-width="1.000000" />
	<path id="Union" d="M16 17.4865C16 16.6655 16.6655 16 17.4865 16L27.0056 16C27.7171 16 28.3287 16.5041 28.4647 17.2024L31.5479 33.036L88.514 33.036C89.335 33.036 90.0005 33.7015 90.0005 34.5225L90.0005 45.6329L90.0005 56.0026L90.0005 66.3723C90.0005 67.1933 89.335 67.8588 88.514 67.8588L36.5248 67.8588L28.4921 67.8588L28.4921 80.4404L88.514 80.4404C89.335 80.4404 90.0005 81.1059 90.0005 81.9269C90.0005 82.7478 89.335 83.4134 88.514 83.4134L78.3712 83.4134C79.663 84.7489 80.4593 86.5769 80.4593 88.593C80.4593 92.6838 77.181 96 73.1369 96C69.0928 96 65.8145 92.6838 65.8145 88.593C65.8145 86.5769 66.6108 84.7489 67.9026 83.4134L49.0809 83.4134C50.3728 84.7489 51.1691 86.5769 51.1691 88.593C51.1691 92.6838 47.8907 96 43.8466 96C39.8026 96 36.5242 92.6838 36.5242 88.593C36.5242 86.5769 37.3205 84.7489 38.6124 83.4134L27.0056 83.4134C26.1847 83.4134 25.5192 82.7478 25.5192 81.9269L25.5192 66.3723C25.5192 65.5513 26.1847 64.8858 27.0056 64.8858L34.7209 64.8858L33.0465 56.2867L31.0273 45.917L28.8638 34.8066L25.7807 18.973L17.4865 18.973C16.6655 18.973 16 18.3075 16 17.4865ZM37.7498 64.8858L87.0275 64.8858L87.0275 57.4891L36.3094 57.4891L37.7498 64.8858ZM35.7305 54.5161L87.0275 54.5161L87.0275 47.1194L34.2902 47.1194L35.7305 54.5161ZM33.7113 44.1464L87.0275 44.1464L87.0275 36.0089L32.1268 36.0089L33.7113 44.1464ZM43.8466 93.027C46.2167 93.027 48.1961 91.0741 48.1961 88.593C48.1961 86.112 46.2167 84.1591 43.8466 84.1591C41.4766 84.1591 39.4972 86.112 39.4972 88.593C39.4972 91.0741 41.4766 93.027 43.8466 93.027ZM77.4864 88.593C77.4864 91.0741 75.507 93.027 73.1369 93.027C70.7668 93.027 68.7874 91.0741 68.7874 88.593C68.7874 86.112 70.7668 84.1591 73.1369 84.1591C75.507 84.1591 77.4864 86.112 77.4864 88.593Z" fill="rgb(197,53,140)" fill-rule="evenodd" />
</svg>
