<svg viewBox="0 0 112 112" xmlns="http://www.w3.org/2000/svg" xmlns:xlink="http://www.w3.org/1999/xlink" width="112.000000" height="112.000000" fill="none" customFrame="#000000">
	<rect id="консультация" width="111.000000" height="111.000000" x="0.500000" y="0.500000" stroke="rgb(0,0,0)" stroke-opacity="0" stroke-width="1.000000" />
	<path id="Union" d="M31.5 17C30.6716 17 30 17.6716 30 18.5L30 92.5C30 93.3284 30.6716 94 31.5 94L80.5 94C81.3284 94 82 93.3284 82 92.5L82 74.37L82 18.5C82 17.6716 81.3284 17 80.5 17L56 17L31.5 17ZM79 20L79 72.87L33 72.87L33 20L56 20L79 20ZM79 91L79 75.87L33 75.87L33 91L79 91ZM49.9664 82.86C49.138 82.86 48.4664 83.5316 48.4664 84.36C48.4664 85.1884 49.138 85.86 49.9664 85.86L60.2052 85.86C61.0337 85.86 61.7052 85.1884 61.7052 84.36C61.7052 83.5316 61.0337 82.86 60.2052 82.86L49.9664 82.86ZM44.9487 33.9535C45.2426 33.6678 45.65 33.5 46.0833 33.5L51.2451 33.5L53.4491 38.8568L50.7234 40.4468C50.0373 40.847 49.7821 41.7127 50.1414 42.4211C51.9446 45.9757 54.8991 48.844 58.539 50.5892C59.2307 50.9209 60.0611 50.6772 60.464 50.0245L62.1205 47.3403L67.7083 49.5134L67.7083 54.4826C67.7083 54.866 67.5521 55.2425 67.2596 55.5268C66.9743 55.8042 66.5821 55.9704 66.1629 55.9799C60.522 55.6346 55.2111 53.3005 51.2249 49.425C47.2411 45.5518 44.8548 40.4071 44.5005 34.9585C44.5108 34.5887 44.6662 34.2281 44.9487 33.9535ZM46.0833 30.5C44.8812 30.5 43.72 30.9639 42.8575 31.8025C41.9935 32.6425 41.5 33.791 41.5 34.9977C41.5 35.0289 41.501 35.0601 41.5029 35.0913C41.892 41.3157 44.6105 47.1784 49.1337 51.576C53.6558 55.9725 59.669 58.6015 66.0365 58.9777C66.066 58.9795 66.0955 58.9803 66.125 58.9803C67.3272 58.9803 68.4883 58.5164 69.3509 57.6778C70.2149 56.8378 70.7083 55.6894 70.7083 54.4826L70.7083 48.4873C70.7083 47.8686 70.3286 47.3135 69.752 47.0893L62.0437 44.0916C61.3692 43.8293 60.6036 44.086 60.2235 44.7018L58.6501 47.2514C56.5542 46.0144 54.7951 44.3128 53.515 42.2915L56.0891 40.7899C56.736 40.4126 57.0054 39.616 56.7205 38.9235L53.6372 31.4293C53.4058 30.867 52.858 30.5 52.25 30.5L46.0833 30.5Z" fill="rgb(197,53,140)" fill-rule="evenodd" />
</svg>
