<svg viewBox="0 0 112 112" xmlns="http://www.w3.org/2000/svg" xmlns:xlink="http://www.w3.org/1999/xlink" width="112.000000" height="112.000000" fill="none" customFrame="#000000">
	<rect id="оплата" width="111.000000" height="111.000000" x="0.500000" y="0.500000" stroke="rgb(0,0,0)" stroke-opacity="0" stroke-width="1.000000" />
	<path id="Vector 52" d="M60.5178 45.3242L60.5178 18.3485C60.5178 18.3485 63.404 16.6981 64.6621 15.0945C65.8663 13.5595 66.4953 11 66.4953 11L87.2079 11C87.2079 11 88.4245 13.5654 89.6621 15.0945C90.9443 16.6788 93.3243 18.3485 93.3243 18.3485L93.3243 46.7195L76.8284 55.2307L60.5178 45.3242L59.2204 45.3242L19 45.3242L19 86.8108L76.8284 86.8108L76.8284 55.2307M72.1947 32.0224L75.531 34.999L82.7595 28.9527M38.7395 53.3238L38.7395 64.4862L27.4333 64.4862L27.4333 53.3238L38.7395 53.3238ZM32.2523 73.416L32.2523 77.881L26.3212 77.881L26.3212 73.416L32.2523 73.416ZM69.5072 73.416L69.5072 77.881L63.5761 77.881L63.5761 73.416L69.5072 73.416ZM57.0889 73.416L57.0889 77.881L51.1578 77.881L51.1578 73.416L57.0889 73.416ZM44.6706 73.416L44.6706 77.881L38.7395 77.881L38.7395 73.416L44.6706 73.416Z" fill-rule="evenodd" stroke="rgb(197,53,140)" stroke-linecap="round" stroke-linejoin="round" stroke-width="3.000000" />
</svg>
