<svg viewBox="0 0 112 112" xmlns="http://www.w3.org/2000/svg" xmlns:xlink="http://www.w3.org/1999/xlink" width="112.000000" height="112.000000" fill="none" customFrame="#000000">
	<rect id="спецпредложения" width="111.000000" height="111.000000" x="0.500000" y="0.500000" stroke="rgb(0,0,0)" stroke-opacity="0" stroke-width="1.000000" />
	<path id="Vector 51" d="M68 65L37.6622 65L17 65L17 31L37.6622 31L68 31L68 65ZM37.6622 31L37.6622 65M22.1187 47.9061L31.9816 47.9061M22.1187 55.4825L31.9816 55.4825M22.1187 40.0792L31.9816 40.0792M57.951 37.9503L48.1493 57.0479M58.5741 57.6114C56.2642 57.6114 54.3917 55.7051 54.3917 53.3536C54.3917 51.0021 56.2642 49.0958 58.5741 49.0958C60.8839 49.0958 62.7564 51.0021 62.7564 53.3536C62.7564 55.7051 60.8839 57.6114 58.5741 57.6114ZM47.3378 46.0902C45.028 46.0902 43.1554 44.1839 43.1554 41.8324C43.1554 39.4809 45.028 37.5746 47.3378 37.5746C49.6477 37.5746 51.5202 39.4809 51.5202 41.8324C51.5202 44.1839 49.6477 46.0902 47.3378 46.0902Z" opacity="0.899999976" fill-rule="evenodd" stroke="rgb(197,53,140)" stroke-linecap="round" stroke-linejoin="round" stroke-width="3.000000" />
</svg>
